<?xml version="1.0" encoding="UTF-8"?>
<svg width="311px" height="17px" viewBox="0 0 311 17" version="1.1" xmlns="http://www.w3.org/2000/svg" xmlns:xlink="http://www.w3.org/1999/xlink">
    <!-- Generator: Sketch 57.1 (83088) - https://sketch.com -->
    <title>logo</title>
    <desc>Created with Sketch.</desc>
    <defs>
        <polygon id="path-1" points="0.00378062624 0.0259921053 127.492985 0.0259921053 127.492985 8.06207105 0.00378062624 8.06207105"></polygon>
        <polygon id="path-3" points="0 0.446115789 134.631192 0.446115789 134.631192 8.38108947 0 8.38108947"></polygon>
    </defs>
    <g id="5---Menus" stroke="none" stroke-width="1" fill="none" fill-rule="evenodd">
        <g id="Desktop-Menu" transform="translate(-50.000000, -53.000000)">
            <g id="Group-4">
                <g id="Group-8">
                    <g id="Group">
                        <g id="logo" transform="translate(50.000000, 53.000000)">
                            <g id="Group-3" transform="translate(183.112150, 3.777778)">
                                <mask id="mask-2" fill="white">
                                    <use xlink:href="#path-1"></use>
                                </mask>
                                <g id="Clip-2"></g>
                                <path d="M0.00378062624,7.97349211 L1.34193562,7.97349211 L1.34193562,4.60793947 L5.40914266,4.60793947 L5.40914266,7.97349211 L6.74776439,7.97349211 L6.74776439,0.114571053 L5.40914266,0.114571053 L5.40914266,3.36962368 L1.34193562,3.36962368 L1.34193562,0.114571053 L0.00378062624,0.114571053 L0.00378062624,7.97349211 Z M11.4614118,7.97349211 L16.3225504,7.97349211 L16.3225504,6.71280789 L12.8000336,6.71280789 L12.8000336,4.60793947 L15.6299023,4.60793947 L15.6299023,3.36962368 L12.8000336,3.36962368 L12.8000336,1.37525526 L16.3225504,1.37525526 L16.3225504,0.114571053 L11.4614118,0.114571053 L11.4614118,7.97349211 Z M30.7617422,7.97349211 L32.3659412,7.97349211 L29.7568424,4.50817632 C30.796748,4.19859737 31.4417881,3.39154474 31.4417881,2.37154474 C31.4417881,1.05449211 30.3575419,0.114571053 28.833156,0.114571053 L26.1764493,0.114571053 L26.1764493,7.97349211 L27.5146043,7.97349211 L27.5146043,4.63030789 L28.2903328,4.63030789 L30.7617422,7.97349211 Z M27.5146043,3.51322895 L27.5146043,1.29786053 L28.7057349,1.29786053 C29.629888,1.29786053 30.0802959,1.74075526 30.0802959,2.41717632 C30.0802959,3.08151842 29.629888,3.51322895 28.7057349,3.51322895 L27.5146043,3.51322895 Z M36.2483176,7.97349211 L41.1094562,7.97349211 L41.1094562,6.71280789 L37.5864726,6.71280789 L37.5864726,4.60793947 L40.4163414,4.60793947 L40.4163414,3.36962368 L37.5864726,3.36962368 L37.5864726,1.37525526 L41.1094562,1.37525526 L41.1094562,0.114571053 L36.2483176,0.114571053 L36.2483176,7.97349211 Z M44.6221714,7.97349211 L46.0541419,7.97349211 L46.9092169,6.22428158 L50.3393184,6.22428158 L51.1939266,7.97349211 L52.6380325,7.97349211 L48.6301019,0.0259921053 L44.6221714,7.97349211 Z M48.6301019,2.72720263 L49.7619561,5.05217632 L47.4865792,5.05217632 L48.6301019,2.72720263 Z M57.8917027,6.77946579 L57.8917027,1.30904474 L59.150978,1.30904474 C60.9194709,1.30904474 62.0872644,2.49367632 62.0872644,4.04336053 C62.0872644,5.59483421 60.9194709,6.77946579 59.150978,6.77946579 L57.8917027,6.77946579 Z M56.5535477,7.97349211 L59.150978,7.97349211 C61.6009171,7.97349211 63.4473563,6.26991316 63.4473563,4.04336053 C63.4473563,1.81815 61.6009171,0.114571053 59.150978,0.114571053 L56.5535477,0.114571053 L56.5535477,7.97349211 Z M69.6961247,8.06207105 C71.279787,8.06207105 72.3061571,7.15570263 72.3061571,5.82701842 C72.3061571,4.73096579 71.5453644,4.04336053 70.4251788,3.57854474 L69.7899403,3.30162368 C68.9684709,2.96967632 68.5988096,2.60417632 68.5988096,2.09507105 C68.5988096,1.55241316 69.1299643,1.24238684 69.6844561,1.24238684 C70.2748873,1.24238684 70.6445485,1.45265 71.072086,1.93983421 L71.9943721,1.02093947 C71.3955395,0.336018421 70.6445485,0.0259921053 69.6961247,0.0259921053 C68.4485181,0.0259921053 67.2601879,0.843781579 67.2601879,2.10580789 C67.2601879,3.12446579 67.872556,3.87738684 69.1070938,4.39901842 L69.754001,4.66475526 C70.5638018,5.00788684 70.9446649,5.35101842 70.9446649,5.93796579 C70.9446649,6.50254474 70.4830551,6.84567632 69.6844561,6.84567632 C68.9684709,6.84567632 68.3332323,6.40278158 67.9519025,5.90486053 L66.9372011,6.72399211 C67.4566871,7.53059737 68.4601867,8.06207105 69.6961247,8.06207105 L69.6961247,8.06207105 Z M83.4650721,7.97349211 L84.8036939,7.97349211 L84.8036939,1.37525526 L86.9287792,1.37525526 L86.9287792,0.114571053 L81.3516554,0.114571053 L81.3516554,1.37525526 L83.4650721,1.37525526 L83.4650721,7.97349211 Z M95.5453398,7.97349211 L97.1509391,7.97349211 L94.5418402,4.50817632 C95.5798789,4.19859737 96.226786,3.39154474 96.226786,2.37154474 C96.226786,1.05449211 95.1425398,0.114571053 93.6162869,0.114571053 L90.9614472,0.114571053 L90.9614472,7.97349211 L92.2996022,7.97349211 L92.2996022,4.63030789 L93.0734637,4.63030789 L95.5453398,7.97349211 Z M92.2996022,3.51322895 L92.2996022,1.29786053 L93.4893326,1.29786053 C94.4148859,1.29786053 94.8652938,1.74075526 94.8652938,2.41717632 C94.8652938,3.08151842 94.4148859,3.51322895 93.4893326,3.51322895 L92.2996022,3.51322895 Z M103.919194,8.06207105 C105.849647,8.06207105 107.211139,6.85686053 107.211139,4.91930789 L107.211139,0.114571053 L105.872517,0.114571053 L105.872517,4.95241316 C105.872517,6.17015 105.086987,6.84567632 103.919194,6.84567632 C102.7528,6.84567632 101.955602,6.17015 101.955602,4.95241316 L101.955602,0.114571053 L100.617447,0.114571053 L100.617447,4.91930789 C100.617447,6.85686053 101.990141,8.06207105 103.919194,8.06207105 L103.919194,8.06207105 Z M113.25314,7.97349211 L114.591295,7.97349211 L114.591295,1.37525526 L116.716847,1.37525526 L116.716847,0.114571053 L111.139256,0.114571053 L111.139256,1.37525526 L113.25314,1.37525526 L113.25314,7.97349211 Z M120.749048,7.97349211 L122.08767,7.97349211 L122.08767,4.60793947 L126.154877,4.60793947 L126.154877,7.97349211 L127.493032,7.97349211 L127.493032,0.114571053 L126.154877,0.114571053 L126.154877,3.36962368 L122.08767,3.36962368 L122.08767,0.114571053 L120.749048,0.114571053 L120.749048,7.97349211 L120.749048,7.97349211 Z" id="Fill-1" fill="#231F20" mask="url(#mask-2)"></path>
                            </g>
                            <g id="Group-6" transform="translate(0.000000, 2.833333)">
                                <mask id="mask-4" fill="white">
                                    <use xlink:href="#path-3"></use>
                                </mask>
                                <g id="Clip-5"></g>
                                <path d="M2.71053121,8.38108947 C4.26527062,8.38108947 5.27482961,7.48590526 5.27482961,6.17422105 C5.27482961,5.09203684 4.52625137,4.41293158 3.42520981,3.95393158 L2.80108503,3.68058947 C1.99724574,3.35266842 1.63270857,2.99164211 1.63270857,2.4888 C1.63270857,1.9533 2.15467007,1.6473 2.69938612,1.6473 C3.27800181,1.6473 3.64114584,1.85487895 4.06094406,2.3358 L4.96880414,1.42853684 C4.37857899,0.752115789 3.64114584,0.446115789 2.71053121,0.446115789 C1.48503619,0.446115789 0.317588496,1.25361579 0.317588496,2.49998421 C0.317588496,3.50566842 0.917565594,4.24919474 2.13191552,4.76411579 L2.76718539,5.02627368 C3.5617371,5.36537895 3.93741936,5.70403684 3.93741936,6.28337895 C3.93741936,6.84124737 3.48232837,7.17990526 2.69938612,7.17990526 C1.99724574,7.17990526 1.37172782,6.74282632 0.996974327,6.25072105 L-4.64378558e-05,7.05956316 C0.509376841,7.85632632 1.49618128,8.38108947 2.71053121,8.38108947 L2.71053121,8.38108947 Z M9.38272233,8.29385263 L10.697378,8.29385263 L10.697378,4.97035263 L14.6933555,4.97035263 L14.6933555,8.29385263 L16.0080112,8.29385263 L16.0080112,0.5338 L14.6933555,0.5338 L14.6933555,3.74769474 L10.697378,3.74769474 L10.697378,0.5338 L9.38272233,0.5338 L9.38272233,8.29385263 Z M20.6392586,8.29385263 L25.4149277,8.29385263 L25.4149277,7.04882632 L21.9539143,7.04882632 L21.9539143,4.97035263 L24.7341487,4.97035263 L24.7341487,3.74769474 L21.9539143,3.74769474 L21.9539143,1.77837895 L25.4149277,1.77837895 L25.4149277,0.5338 L20.6392586,0.5338 L20.6392586,8.29385263 Z M39.6002995,8.29385263 L41.175936,8.29385263 L38.6130307,4.87193158 C39.6341991,4.56593158 40.2680759,3.76916842 40.2680759,2.76214211 C40.2680759,1.46164211 39.2027915,0.5338 37.7051706,0.5338 L35.0953631,0.5338 L35.0953631,8.29385263 L36.4100188,8.29385263 L36.4100188,4.99227368 L37.172064,4.99227368 L39.6002995,8.29385263 Z M36.4100188,3.88951053 L36.4100188,1.70187895 L37.5802528,1.70187895 C38.4881129,1.70187895 38.9306656,2.13940526 38.9306656,2.80732632 C38.9306656,3.46316842 38.4881129,3.88951053 37.5802528,3.88951053 L36.4100188,3.88951053 Z M44.9898771,8.29385263 L49.7660105,8.29385263 L49.7660105,7.04882632 L46.3049971,7.04882632 L46.3049971,4.97035263 L49.0847672,4.97035263 L49.0847672,3.74769474 L46.3049971,3.74769474 L46.3049971,1.77837895 L49.7660105,1.77837895 L49.7660105,0.5338 L44.9898771,0.5338 L44.9898771,8.29385263 Z M53.2168076,8.29385263 L54.6238746,8.29385263 L55.4634711,6.56656316 L58.8334663,6.56656316 L59.6735271,8.29385263 L61.0917392,8.29385263 L57.1542734,0.446115789 L53.2168076,8.29385263 Z M57.1542734,3.11332632 L58.26646,5.40922105 L56.0309417,5.40922105 L57.1542734,3.11332632 Z M66.2533069,7.11458947 L66.2533069,1.71306316 L67.489947,1.71306316 C69.2276515,1.71306316 70.3751309,2.88248421 70.3751309,4.41293158 C70.3751309,5.94472105 69.2276515,7.11458947 67.489947,7.11458947 L66.2533069,7.11458947 Z M64.9381868,8.29385263 L67.489947,8.29385263 C69.8972854,8.29385263 71.7111481,6.61174737 71.7111481,4.41293158 C71.7111481,2.21590526 69.8972854,0.5338 67.489947,0.5338 L64.9381868,0.5338 L64.9381868,8.29385263 Z M77.8502326,8.38108947 C79.4059008,8.38108947 80.414531,7.48590526 80.414531,6.17422105 C80.414531,5.09203684 79.6668815,4.41293158 78.5663043,3.95393158 L77.9421796,3.68058947 C77.1350896,3.35266842 76.7719456,2.99164211 76.7719456,2.4888 C76.7719456,1.9533 77.2939071,1.6473 77.8386231,1.6473 C78.418632,1.6473 78.781776,1.85487895 79.2015742,2.3358 L80.1080412,1.42853684 C79.5196735,0.752115789 78.781776,0.446115789 77.8502326,0.446115789 C76.6247376,0.446115789 75.4572899,1.25361579 75.4572899,2.49998421 C75.4572899,3.50566842 76.0586601,4.24919474 77.2711525,4.76411579 L77.9068868,5.02627368 C78.7023673,5.36537895 79.0771208,5.70403684 79.0771208,6.28337895 C79.0771208,6.84124737 78.6229585,7.17990526 77.8386231,7.17990526 C77.1350896,7.17990526 76.5109648,6.74282632 76.1366757,6.25072105 L75.139655,7.05956316 C75.650007,7.85632632 76.6358827,8.38108947 77.8502326,8.38108947 L77.8502326,8.38108947 Z M91.3771156,8.29385263 L92.6922357,8.29385263 L92.6922357,1.77837895 L94.7800817,1.77837895 L94.7800817,0.5338 L89.3008791,0.5338 L89.3008791,1.77837895 L91.3771156,1.77837895 L91.3771156,8.29385263 Z M103.244774,8.29385263 L104.822268,8.29385263 L102.259363,4.87193158 C103.279138,4.56593158 103.914408,3.76916842 103.914408,2.76214211 C103.914408,1.46164211 102.849124,0.5338 101.35011,0.5338 L98.7416952,0.5338 L98.7416952,8.29385263 L100.056351,8.29385263 L100.056351,4.99227368 L100.816539,4.99227368 L103.244774,8.29385263 Z M100.056351,3.88951053 L100.056351,1.70187895 L101.225192,1.70187895 C102.134445,1.70187895 102.576998,2.13940526 102.576998,2.80732632 C102.576998,3.46316842 102.134445,3.88951053 101.225192,3.88951053 L100.056351,3.88951053 Z M111.471705,8.38108947 C113.368227,8.38108947 114.705637,7.19108947 114.705637,5.27769474 L114.705637,0.5338 L113.390981,0.5338 L113.390981,5.3108 C113.390981,6.51332632 112.619184,7.17990526 111.471705,7.17990526 C110.325618,7.17990526 109.542676,6.51332632 109.542676,5.3108 L109.542676,0.5338 L108.22802,0.5338 L108.22802,5.27769474 C108.22802,7.19108947 109.576576,8.38108947 111.471705,8.38108947 L111.471705,8.38108947 Z M120.641788,8.29385263 L121.956444,8.29385263 L121.956444,1.77837895 L124.04429,1.77837895 L124.04429,0.5338 L118.565087,0.5338 L118.565087,1.77837895 L120.641788,1.77837895 L120.641788,8.29385263 Z M128.005903,8.29385263 L129.320559,8.29385263 L129.320559,4.97035263 L133.316536,4.97035263 L133.316536,8.29385263 L134.631192,8.29385263 L134.631192,0.5338 L133.316536,0.5338 L133.316536,3.74769474 L129.320559,3.74769474 L129.320559,0.5338 L128.005903,0.5338 L128.005903,8.29385263 L128.005903,8.29385263 Z" id="Fill-4" fill="#231F20" mask="url(#mask-4)"></path>
                            </g>
                            <path d="M159.334075,15.8858997 L166.610592,12.3320731 L166.610592,1.6046429 L159.330047,5.16083073 L152.140187,1.60930951 L152.140187,12.3328129 L159.334075,15.8858997 Z" id="Fill-7" stroke="#000000" stroke-width="2"></path>
                        </g>
                    </g>
                </g>
            </g>
        </g>
    </g>
</svg>