<svg height="17" viewBox="0 0 17 17" width="17" xmlns="http://www.w3.org/2000/svg"><g fill-rule="evenodd" transform="matrix(-1 0 0 1 17 0)"><path d="m6.29 13.421c-2.534.012-4.826-1.615-5.804-4.121s-.45-5.397 1.34-7.322c1.786-1.928 4.482-2.508 6.825-1.471 2.344 1.037 3.874 3.485 3.874 6.202.005 3.697-2.785 6.7-6.235 6.712zm0-11.468c-1.795-.013-3.422 1.137-4.118 2.913-.696 1.775-.324 3.825.942 5.19 1.267 1.367 3.177 1.78 4.839 1.047 1.661-.734 2.746-2.469 2.747-4.394.005-2.616-1.967-4.743-4.408-4.754v-.002z" fill-rule="nonzero"/><path d="m15.676 17-4.044-4.036 1.323-1.332 4.045 4.036z"/></g></svg>